HIERARCHY
ROOT Hips
{
	OFFSET 0.000000 0.000000 0.000000 
	CHANNELS 6 Xposition Yposition Zposition Zrotation Xrotation Yrotation
	JOINT Chest
	{
		OFFSET 0.000000 20.000000 0.000000 
		CHANNELS 3 Zrotation Xrotation Yrotation
		JOINT LeftShoulder
		{
			OFFSET 20.000000 20.000000 0.000000 
			CHANNELS 3 Zrotation Xrotation Yrotation
			JOINT LeftElbow
			{
				OFFSET 0.000000 -25.000000 0.000000 
				CHANNELS 3 Zrotation Xrotation Yrotation
				JOINT LeftWrist
				{
					OFFSET 0.000000 -22.000000 0.000000 
					CHANNELS 3 Zrotation Xrotation Yrotation
					End Site
					{
						OFFSET 0.000000 -15.000000 0.000000 
					}
				}
			}
		}
		JOINT RightShoulder
		{
			OFFSET -20.000000 20.000000 0.000000 
			CHANNELS 3 Zrotation Xrotation Yrotation
			JOINT RightElbow
			{
				OFFSET 0.000000 -25.000000 0.000000 
				CHANNELS 3 Zrotation Xrotation Yrotation
				JOINT RightWrist
				{
					OFFSET 0.000000 -22.000000 0.000000 
					CHANNELS 3 Zrotation Xrotation Yrotation
					End Site
					{
						OFFSET 0.000000 -15.000000 0.000000 
					}
				}
			}
		}
		JOINT Neck
		{
			OFFSET 0.000000 20.099993 0.000000 
			CHANNELS 3 Zrotation Xrotation Yrotation
			End Site
			{
				OFFSET -0.200000 15.899995 10.500000 
			}
		}
	}
	JOINT LeftHip
	{
		OFFSET 10.000000 0.000000 0.000000 
		CHANNELS 3 Zrotation Xrotation Yrotation
		JOINT LeftKnee
		{
			OFFSET 0.000000 -50.000000 0.000000 
			CHANNELS 3 Zrotation Xrotation Yrotation
			JOINT LeftAnkle
			{
				OFFSET 0.000000 -40.000000 0.000000 
				CHANNELS 3 Zrotation Xrotation Yrotation
				End Site
				{
					OFFSET 0.000000 0.000000 20.000000 
				}
			}
		}
	}
	JOINT RightHip
	{
		OFFSET -10.000000 0.000000 0.000000 
		CHANNELS 3 Zrotation Xrotation Yrotation
		JOINT RightKnee
		{
			OFFSET 0.000000 -50.000000 0.000000 
			CHANNELS 3 Zrotation Xrotation Yrotation
			JOINT RightAnkle
			{
				OFFSET 0.000000 -40.000000 0.000000 
				CHANNELS 3 Zrotation Xrotation Yrotation
				End Site
				{
					OFFSET 0.000000 0.000000 20.000000 
				}
			}
		}
	}
}
MOTION
Frames: 17
Frame Time: 0.04170833333333333
0.000000 0.000000 0.000000  3.43396325  7.74960601 -3.67137576 -1.99038872 -0.00396211 -0.29755436   4.68837834  -0.42633858 -94.70764725   27.25547732   -6.832147   -117.30351188   3.08873842  -4.88067909 -93.38336277 -0.73384027 -3.15354541 90.77773403 -27.48274757  -1.48161608 115.28967119 -2.82895448 -5.64601577 93.14973656 -5.17024975 -0.20563553  2.66605707 -7.91009989 -3.80707574 98.39935266   18.85199715   -2.36992433 -108.60241414 -31.82733696   9.48346096  25.08970373   4.34842634  -5.32524593 -94.79890316 -20.66571864 -11.84717616 114.16362815 -137.6149295     4.5477973    35.69532074 
0.000000 0.000000 0.000000  3.41565133  7.23993155 -3.49138289 -2.17411492e+00  1.39339189e-03  1.19022699e-01   4.87861319   0.6177026  -94.80988162   27.18874431   -7.34917907 -117.4930047    3.04888137  -4.80504156 -93.33465439 -0.99437142 -2.62854908 91.04314122 -27.88297893  -1.17260213 115.47238749 -3.4538733  -6.07227227 93.87771794 -5.01100724 -0.11676741  1.53811982 -7.34742503 -3.72043587 97.80041581   19.90432543   -1.1669965  -109.14550929 -32.94368655   8.28100432  26.09226706   4.42359947  -7.25339427 -95.08890286 -24.73377307 -12.41082967 118.16607247 -136.28624855    9.83618643   38.7245178  
0.000000 0.000000 0.000000  3.44848429  7.28276572 -3.45356547 -2.20715122e+00  4.71069038e-04  3.90760589e-02   4.87447274   0.61765129 -94.80583231   27.36638927   -7.52486586 -117.71270809   3.30020865  -4.73549968 -93.6033167  -1.21525308 -2.54868695 91.27280802 -27.75236344  -0.25985902 115.05761007 -3.79370424 -6.1981546  94.26874424 -4.99715814 -0.09876377  1.31130245 -7.24372205 -3.85912522 97.71321813   20.14859129   -0.91385199 -109.27662574 -33.46875704   8.16938413  26.45275006   4.36414716  -7.39950323 -95.0375263  -24.70958897 -12.5022988  118.19916251 -135.58894397   11.03177009   39.63608642 
0.000000 0.000000 0.000000  3.57293476  8.46105712 -3.53000935 -1.98520176 -0.01211953 -0.68666257   4.21424352   0.79850675 -94.14587517   28.18854621   -7.03356177 -118.1035573    2.94665593  -4.08963069 -93.17667873 -2.24363307 -2.05979757 92.32690041 -27.57175449   2.45548433 114.05210551 -4.36462644 -5.69308672 94.85403391 -5.41510123 -0.11637212  1.51068894 -7.30759896 -5.19638553 97.99121228   21.55917776   -1.11650546 -110.52170541 -32.95136941   7.91476367  26.18734218   4.10375274  -8.55971544 -94.86716326 -25.09982253 -12.73503628 118.67004381 -135.2260593    12.23856887   40.42647465 
0.000000 0.000000 0.000000  3.86010856 11.64226742 -3.83649688 -0.8426355  -0.02155539 -0.50828449   1.98562628  -0.71358182 -92.00958295   27.7453857    -0.11987338 -115.00471671   1.32934899  -5.08732643 -91.46454123 -4.0331891  -2.26638212 94.19128292 -28.35439605   9.13380232 112.85052505 -4.10646229 -5.12985265 94.5152197  -5.58571772 -0.10359126  1.87728221 -7.46591736 -8.44005233 98.75582675   24.24588716   -1.82114691 -112.93457563 -32.2175838    6.06580026  26.19316626   3.66934912 -11.53646458 -94.6892786  -28.82381791 -12.89366148 121.74356271 -137.06939511   16.14197247   41.9787333  
0.000000 0.000000 0.000000  4.0693658  14.94498807 -3.91098048 -0.44701923 -0.02161941 -0.41176076   2.6302828   -2.86015875 -92.76877301   27.34439749   11.36509417 -111.68011787   5.36758086  -3.00715578 -95.64499451 -7.71797068 -4.5909343  98.3276252  -28.62925878  15.51494304 111.79322609 -7.282445   -5.40908977 97.99919479 -3.98325823 -0.01885446  1.10468903  -7.82239685 -11.63518861  99.9023073    28.36825464   -3.21686825 -116.59464708 -32.73611343   3.24234122  27.33902462   3.29576149 -13.50863467 -94.44756584 -30.89567676 -12.63049188 123.08356799 -138.01426792   18.04261533   42.87089642 
0.000000 0.000000 0.000000  4.2547456  18.37784431 -4.02254716 -1.20773657  0.00220246  0.05354889   8.6198119   -6.18393259 -99.5835483    23.92905719   20.08241854 -107.9363687    6.77419478  -1.13300032 -96.86215948 -14.21561223  -8.78463615 106.29199203 -24.31575149  23.79440683 107.7978288  -7.15174806 -3.97324732 97.63413676 -2.97722526  0.00654447 -0.60282105  -8.53091257 -13.43427905 101.29268539   29.4103527    -4.80752812 -118.00200074 -31.89985712   1.99766374  27.18277682   3.12873938 -13.60375997 -94.23487879 -29.13451073 -12.15882948 121.52870405 -139.36167112   16.91981123   41.51057205 
0.000000 0.000000 0.000000  4.31956894 22.63823665 -3.76245795 -1.69860498  0.04605249  1.46883202   21.02056834  -10.06021588 -113.58649978   16.03480192   25.94378756 -101.82176265   7.19308677  -1.37808153 -97.31179656 -24.02626504 -15.97595246 119.83282122 -9.39998591 31.37370638 96.81120073 -6.82415683 -4.42091471 97.35543995 -2.21892108  0.01719251 -2.32791419  -9.43940721 -14.30801946 102.74324247   25.31503877   -5.88786217 -115.36355322 -29.44685672   4.75956591  24.70087636   2.93251116 -15.49053984 -94.19829818 -26.00602588 -11.2182478  118.54494726 -140.34180486   14.27407888   39.31537619 
0.000000 0.000000 0.000000  3.82576103 21.94683813 -3.58998332 -1.47036147  0.04688014  1.54872959   40.43264655   -7.36864361 -125.95543043  11.2969303   26.62437426 -98.35757333   10.32493675    0.89610931 -100.01160291 -45.67726719 -13.42516506 131.43597031 -6.96596653 29.31181962 95.10372143 -11.15494741  -4.67408754 101.91666316 -2.20422659  0.0263514  -3.20761105  -8.88445158 -14.20951258 101.99538859   25.08040245   -5.30343529 -114.92850414 -31.15491701   4.42706757  25.95026794   3.30900842 -15.45625202 -94.72881911 -25.20170531 -10.89611448 117.70307723 -140.60480258   12.56422063   38.15070862 
0.000000 0.000000 0.000000  3.492063   19.71788464 -3.35560693 -3.45177990e+00  2.14395289e-04 -5.33369873e-02  6.31280568e+01 -6.90254021e-02 -1.31749091e+02  11.74022648  23.72778155 -98.83258062   12.203204      3.02073285 -101.38105611 -62.96230881  -6.81392094 133.48801417 -11.73996958  25.36813029  98.74299447 -12.09818168  -2.68523585 102.40208422 -0.15886546 -0.00471329  0.69386844  -7.88568087 -12.81579839 100.2943675    26.29074379   -4.12486655 -115.39716321 -32.21800512   2.27426222  27.30359296   3.93969624 -15.78433314 -95.67895532 -28.20589617  -9.96561113 119.588026   -141.94840473   12.95155719   37.67988309 
0.000000 0.000000 0.000000  3.03107001 15.30454968 -2.53609294 -5.2095396   0.02891503 -0.6892798    79.21635205   -0.36937943 -134.52477186   8.08284172  21.63455854 -96.19862999   7.19101598   4.68779341 -96.625133   -76.3668509   -6.91260502 135.22081983 -12.45928412  19.52783802  99.64969323 -7.85917501e+00 -9.30456695e-02  9.77986665e+01 -0.84073114  0.02512344 -0.44339736  -4.62161984 -11.6840595   95.91722402   25.62627121    2.40787842 -112.63949081 -31.26330972   4.67570713  25.95126298   4.52455447 -16.62566536 -96.68578086 -31.37479193 -10.91385461 122.40390729 -144.65762919   10.79279766   34.88838621 
0.000000 0.000000 0.000000  2.78000268 10.32998788 -2.34873339 -4.46045353  0.02109922 -0.65232343   86.16443031    4.43535473 -134.87342319   4.62787177  28.61746902 -93.40707791   4.92825377   2.91141232 -94.68041847 -85.04150308  -5.27709378 135.24388931 -9.65268459 22.93531307 97.32097329 -11.92532328  -0.64761302 101.80274284 -2.64187331  0.04390747 -0.55856718  -2.70736113 -10.09778334  93.33996082   28.84261779    3.90974488 -114.5233616  -30.95319135   4.86110643  25.69244206   3.65056649 -14.7468124  -95.10280704 -36.94164572 -11.62588154 126.29146859 -145.7319627    10.02844199   33.80895214 
0.000000 0.000000 0.000000  2.50763333  6.00529103 -2.43063961 -2.9375871   0.0260931  -2.15494826  100.52540629    2.88052484 -134.81462461   0.59176522  29.62764842 -90.43395942   0.61837717   8.26934113 -90.54555753 -95.69006429  -9.39454061 134.77920497   1.43757843  27.27224084 -91.06707726    9.76038819   -2.21715772 -100.00324009 -4.59008002  0.24224923 -2.61750293 -1.57871016 -5.9626842  91.77155213   26.96212628    2.10701758 -113.71600672 -34.01791397   3.44727566  28.09387935 -5.48899870e-02 -9.55483559e+00  9.00669279e+01   35.33475062    9.33077247 -117.33133518 -32.3439696   -2.30022671  28.99702013 
0.000000 0.000000 0.000000  2.59343204  6.52083799 -3.9567439  -2.17889642  0.01219228 -2.29179328  112.74402128    4.02980115 -133.54364433 -5.56454458 29.06169163 94.08555406 -13.70665618 -20.27671614 111.50618939 -111.45153259   -7.76122557  131.82009479   5.57242727  24.76926446 -94.19152474   4.77843451  -8.94086277 -95.71095533 -4.44158138e+00 -1.44273540e-03  1.73757401e-02   1.19009463  -6.42202331 -91.34912294 -28.17478455  -3.43662974 116.53997401 -147.03007629   -6.13718374   26.65877328  -4.25316219 -10.07821401  95.23102934   36.03097899    6.6580058  -118.41931922 -29.07031961   6.30547346  24.02668568 
0.000000 0.000000 0.000000  2.04255019  4.61444821 -4.02988999 -9.04734451e-01 -3.95472755e-04 -2.18822213e+00  121.87564816    0.36942336 -130.4348225  -16.95353378  43.63922542 101.89915671   14.34623807  -27.11142322 -118.91316175 -123.35541531   -8.63203988  127.94569239   1.10133569  18.40674936 -90.87081622 -43.04910527  -2.17099053 125.09105705 -4.71518754 -0.05989683  0.72774866   4.83269408  -4.85469064 -95.27726205 -29.99882488  -5.27367579 118.6227381  -157.25327131  -11.71248765   18.34035214 -8.3510532  -8.00366919 99.66849151   35.36503372    3.22242593 -118.99754236 -26.96354174  12.15740512  21.2616029  
0.000000 0.000000 0.000000  1.89513263  7.67603175 -3.97232691  0.09824264 -0.01775596 -2.01446305  135.19227659   -7.04845185 -123.13766518 -20.63889267  38.86555377 104.47034464   19.44450878  -32.17670038 -134.0391111  -139.87932589  -13.50900308  119.24352938   14.60762314   23.67321356 -100.94285495 -31.13944597 -25.15821974 133.69287098 -3.94554481 -0.05399769  0.89810352   8.27953167  -7.600852   -99.5022235  -30.02719469  -7.10864764 119.4806467  -158.86615706  -13.74903526   16.81543781 -10.32830617 -10.97435483 102.71758983   35.27632033    2.55920263 -119.15038842 -30.31042593   7.85548492  24.47701418 
0.000000 0.000000 0.000000  1.41002672  7.84777822 -3.83100046  0.74823958 -0.02232889 -1.26076593  149.62601075   -8.55086614 -114.35210539 -17.60468005  39.64375433 102.3777945    22.93403771  -26.6170973  -128.98803355 -158.7299284   -11.77682692  107.23814169  11.44211855  22.72982828 -98.66945269 -27.1634475  -23.20067845 128.75970391 -3.94650016 -0.0692942   1.35278132   11.00765297   -7.36792594 -102.4358467  -28.98603709 -10.41868382 120.41967886 -158.81180471  -12.3898599    17.07381496 -10.86131593 -12.21987259 103.76012981   34.53520638    2.66683922 -118.65905446 -27.11843834   6.60188527  22.58821407 
